<svg width="250" height="300" viewBox="0 0 250 300" role="img" xmlns="http://www.w3.org/2000/svg">
  <title>Logo ReKestMe</title>
  <defs>
    <marker id="arrow" viewBox="0 0 10 10" refX="8" refY="5" markerWidth="6" markerHeight="6" orient="auto-start-reverse">
      <path d="M2 1L8 5L2 9" fill="none" stroke="context-stroke" stroke-width="1.5" stroke-linecap="round" stroke-linejoin="round"/>
    </marker>
  </defs>
  <rect x="0" y="0" width="250" height="300" rx="40" fill="#1e3a5f"/>
  <ellipse cx="65" cy="45" rx="60" ry="30" fill="#3b82f6" opacity="0.1"/>
  <!-- Monitor -->
  <rect x="50" y="25" width="150" height="110" rx="8" fill="#0f2440" stroke="#3b82f6" stroke-width="2"/>
  <rect x="61" y="36" width="128" height="86" rx="5" fill="#0d1f38"/>
  <!-- Code lines -->
  <line x1="71" y1="51" x2="109" y2="51" stroke="#3b82f6" stroke-width="1.5" stroke-linecap="round" opacity="0.6"/>
  <line x1="71" y1="62" x2="127" y2="62" stroke="#22d3ee" stroke-width="1.5" stroke-linecap="round" opacity="0.5"/>
  <line x1="71" y1="73" x2="119" y2="73" stroke="#3b82f6" stroke-width="1.5" stroke-linecap="round" opacity="0.6"/>
  <line x1="71" y1="84" x2="131" y2="84" stroke="#22d3ee" stroke-width="1.5" stroke-linecap="round" opacity="0.4"/>
  <line x1="71" y1="95" x2="103" y2="95" stroke="#3b82f6" stroke-width="1.5" stroke-linecap="round" opacity="0.5"/>
  <!-- Monitor stand -->
  <rect x="121" y="135" width="8" height="18" rx="2" fill="#1e3a5f" stroke="#3b82f6" stroke-width="1.5"/>
  <rect x="107" y="151" width="36" height="7" rx="3" fill="#1e3a5f" stroke="#3b82f6" stroke-width="1.5"/>
  <!-- Arrow -->
  <line x1="80" y1="190" x2="128" y2="190" stroke="#22d3ee" stroke-width="2.5" fill="none" marker-end="url(#arrow)"/>
  <circle cx="90" cy="190" r="2.5" fill="#22d3ee"/>
  <circle cx="103" cy="190" r="2.5" fill="#22d3ee" opacity="0.6"/>
  <circle cx="116" cy="190" r="2.5" fill="#22d3ee" opacity="0.3"/>
  <!-- Gear -->
  <circle cx="155" cy="190" r="18" fill="#0f2440" stroke="#22d3ee" stroke-width="2"/>
  <circle cx="155" cy="190" r="9" fill="none" stroke="#22d3ee" stroke-width="1.5"/>
  <circle cx="155" cy="190" r="3.5" fill="#22d3ee"/>
  <line x1="155" y1="168" x2="155" y2="172" stroke="#22d3ee" stroke-width="2.5" stroke-linecap="round"/>
  <line x1="155" y1="208" x2="155" y2="212" stroke="#22d3ee" stroke-width="2.5" stroke-linecap="round"/>
  <line x1="133" y1="190" x2="137" y2="190" stroke="#22d3ee" stroke-width="2.5" stroke-linecap="round"/>
  <line x1="173" y1="190" x2="177" y2="190" stroke="#22d3ee" stroke-width="2.5" stroke-linecap="round"/>
  <line x1="140" y1="175" x2="143" y2="178" stroke="#22d3ee" stroke-width="2" stroke-linecap="round"/>
  <line x1="167" y1="202" x2="170" y2="205" stroke="#22d3ee" stroke-width="2" stroke-linecap="round"/>
  <line x1="170" y1="175" x2="167" y2="178" stroke="#22d3ee" stroke-width="2" stroke-linecap="round"/>
  <line x1="143" y1="202" x2="140" y2="205" stroke="#22d3ee" stroke-width="2" stroke-linecap="round"/>
  <!-- Divider -->
  <line x1="30" y1="233" x2="220" y2="233" stroke="#3b82f6" stroke-width="1" opacity="0.3"/>
  <!-- Name -->
  <text x="125" y="272" text-anchor="middle" font-family="Arial, sans-serif" font-size="38" font-weight="700" letter-spacing="-1">
    <tspan fill="#ffffff">Re</tspan><tspan fill="#22d3ee">Kest</tspan><tspan fill="#ffffff">Me</tspan>
  </text>
  <!-- Dots -->
  <circle cx="215" cy="285" r="2.5" fill="#3b82f6" opacity="0.4"/>
  <circle cx="226" cy="285" r="2.5" fill="#3b82f6" opacity="0.25"/>
  <circle cx="237" cy="285" r="2.5" fill="#3b82f6" opacity="0.1"/>
</svg>
