<svg width="145" height="32" viewBox="0 0 145 32" role="img" xmlns="http://www.w3.org/2000/svg">
  <title>ReKestMe</title>
  <defs>
    <marker id="arN" viewBox="0 0 10 10" refX="8" refY="5" markerWidth="5" markerHeight="5" orient="auto-start-reverse">
      <path d="M2 1L8 5L2 9" fill="none" stroke="#22d3ee" stroke-width="1.5" stroke-linecap="round" stroke-linejoin="round"/>
    </marker>
  </defs>
  <!-- Monitor icon -->
  <rect x="1" y="1" width="26" height="19" rx="2.5" fill="#0f2440" stroke="#3b82f6" stroke-width="1.5"/>
  <rect x="4" y="4" width="20" height="13" rx="1.5" fill="#0d1f38"/>
  <line x1="6" y1="7"  x2="13" y2="7"  stroke="#3b82f6" stroke-width="1.2" stroke-linecap="round" opacity="0.7"/>
  <line x1="6" y1="10" x2="18" y2="10" stroke="#22d3ee" stroke-width="1.2" stroke-linecap="round" opacity="0.6"/>
  <line x1="6" y1="13" x2="15" y2="13" stroke="#3b82f6" stroke-width="1.2" stroke-linecap="round" opacity="0.7"/>
  <rect x="13" y="20" width="2" height="4"  rx="1" fill="#1e3a5f" stroke="#3b82f6" stroke-width="1"/>
  <rect x="9"  y="23" width="10" height="2" rx="1" fill="#1e3a5f" stroke="#3b82f6" stroke-width="1"/>
  <!-- Arrow -->
  <line x1="29" y1="16" x2="38" y2="16" stroke="#22d3ee" stroke-width="1.8" marker-end="url(#arN)"/>
  <circle cx="31.5" cy="16" r="1.5" fill="#22d3ee"/>
  <circle cx="35"   cy="16" r="1.5" fill="#22d3ee" opacity="0.5"/>
  <!-- Gear -->
  <circle cx="46" cy="16" r="7"   fill="#0f2440" stroke="#22d3ee" stroke-width="1.5"/>
  <circle cx="46" cy="16" r="3.5" fill="none"    stroke="#22d3ee" stroke-width="1.2"/>
  <circle cx="46" cy="16" r="1.5" fill="#22d3ee"/>
  <line x1="46" y1="7"  x2="46" y2="9"  stroke="#22d3ee" stroke-width="2" stroke-linecap="round"/>
  <line x1="46" y1="23" x2="46" y2="25" stroke="#22d3ee" stroke-width="2" stroke-linecap="round"/>
  <line x1="37" y1="16" x2="39" y2="16" stroke="#22d3ee" stroke-width="2" stroke-linecap="round"/>
  <line x1="53" y1="16" x2="55" y2="16" stroke="#22d3ee" stroke-width="2" stroke-linecap="round"/>
  <line x1="39.9" y1="9.9"  x2="41.3" y2="11.3" stroke="#22d3ee" stroke-width="1.5" stroke-linecap="round"/>
  <line x1="50.7" y1="20.7" x2="52.1" y2="22.1" stroke="#22d3ee" stroke-width="1.5" stroke-linecap="round"/>
  <line x1="52.1" y1="9.9"  x2="50.7" y2="11.3" stroke="#22d3ee" stroke-width="1.5" stroke-linecap="round"/>
  <line x1="41.3" y1="20.7" x2="39.9" y2="22.1" stroke="#22d3ee" stroke-width="1.5" stroke-linecap="round"/>
  <!-- Name -->
  <text x="58" y="21" font-family="Arial, sans-serif" font-size="15" font-weight="700" letter-spacing="-0.5">
    <tspan fill="#ffffff">Re</tspan><tspan fill="#22d3ee">Kest</tspan><tspan fill="#ffffff">Me</tspan>
  </text>
</svg>
